<?xml version="1.0" encoding="UTF-8"?>
<svg id="Calque_1" data-name="Calque 1" xmlns="http://www.w3.org/2000/svg" viewBox="0 0 620.34 284.99">
  <defs>
    <style>
      .cls-1 {
        fill: #ffcc04;
      }

      .cls-2 {
        fill: #1d1d1b;
      }
    </style>
  </defs>
  <g>
    <path class="cls-1" d="M64.29,188.86c-.19-11.56-.41-23.12-.47-34.67-.06-11.82,.11-23.64,.05-35.46-.02-3.46-.52-6.92-.76-10.38-.29-4.1-2.76-5.16-6.48-5.06-6.16,.16-12.32,.03-18.48,.04-4.37,0-6.32-1.54-6.34-6.5-.11-23.27-.67-46.54-1.06-69.81C51.58,6.77,76.77-1.61,105.42,.25c68.88,4.48,110.89,78.65,80.2,141.34-21.62,44.17-71.92,64.43-120.73,48.63-.21-.45-.59-.9-.6-1.36Zm66.74-97.54c-.21-.68-.41-1.37-.62-2.05-6.05-20.96-29.15-31.21-48.68-20.69-12.87,6.94-21.18,24.46-16.59,37.74,5.05,14.59,16.45,26.32,36.4,24.83,15.06-1.12,27.69-13.91,29.57-29.77,.08-.66,.23-1.3,.35-1.95,.01-1.05,.02-2.1,.04-3.15-.16-1.65-.32-3.3-.48-4.95Z"/>
    <path class="cls-1" d="M64.53,196.16c-.02,17.61,0,35.23,.02,52.84,0,1.76,0,3.53,0,3.98-3.39,1.91-5.7,3.21-8.01,4.51,2.45,1.35,4.91,2.71,7.69,4.24,0,6.86,0,14.43,0,22.43-6.28,0-12.23,.12-18.17-.11-1.06-.04-2.71-1.37-3-2.41-1.72-6.32-6.03-9.24-12.18-10.05,.34-3.72,.69-7.44,1.03-11.17,.82-.07,1.81,.12,2.44-.26,1.25-.75,2.3-1.82,3.43-2.76-1.13-.93-2.17-2-3.41-2.75-.64-.39-1.61-.21-2.44-.29-.01-8.63,.1-17.27-.07-25.9-.19-9.59-.73-19.18-.91-28.77-.07-3.78-2.35-4.34-5.24-4.34-8.47-.01-16.93,.03-25.4,.05C.2,193.42,0,191.43,0,189.45c0-30.46,.04-60.92,.04-91.39,0-19.66,5.23-37.84,16.2-54.1,4.13-6.12,9.63-11.32,14.51-16.94,.4,23.27,.96,46.54,1.06,69.81,.02,4.96,1.97,6.51,6.34,6.5,6.16-.01,12.32,.12,18.48-.04,3.72-.1,6.19,.96,6.48,5.06,.24,3.46,.75,6.92,.76,10.38,.06,11.82-.11,23.64-.05,35.46,.06,11.56,.28,23.12,.47,34.67,0,.46,.39,.91,.6,1.36-.13,1.98-.36,3.96-.36,5.94Zm-21.28,58.56c-1.15,.53-1.98,1.74-2.95,2.65,.95,.94,1.78,2.47,2.87,2.68,2.22,.43,4.66,.51,6.86,.03,1.36-.3,2.44-1.89,3.65-2.91-1.18-.86-2.27-1.96-3.58-2.49-.99-.4-2.27-.08-3.43-.08v.02c-1.15,0-2.47-.35-3.42,.09Z"/>
    <path class="cls-1" d="M19.36,281.81c-.21,.94-1.68,2.23-2.6,2.27-5.43,.22-10.87,.11-16.55,.11,0-8.24,0-15.84,0-22.4,2.25-1.72,3.9-2.98,5.54-4.23-1.71-1.4-3.42-2.8-5.44-4.45,0-18.74,0-38.21,0-57.69,8.47-.02,16.93-.06,25.4-.05,2.89,0,5.17,.57,5.24,4.34,.19,9.59,.73,19.18,.91,28.77,.17,8.63,.05,17.27,.07,25.9-1.46,.09-3.02-.09-4.37,.35-1.3,.43-2.39,1.52-3.57,2.32,1.17,1.05,2.19,2.45,3.55,3.05,1.26,.55,2.89,.26,4.36,.33-.34,3.72-.69,7.44-1.03,11.17-5.85,1.13-10.1,3.97-11.52,10.22Zm-9.82-26.85c-.5,0-1.41,1.46-1.43,2.26-.02,.73,.75,1.73,1.45,2.19,3.11,2.01,10.44,.84,13.41-2.29-4.16-4.16-8.99-2.08-13.44-2.15Z"/>
    <path class="cls-1" d="M131.5,96.26c-.01,1.05-.03,2.1-.04,3.15,.01-1.05,.02-2.1,.04-3.15Z"/>
    <path class="cls-1" d="M130.41,89.26c.2,.68,.41,1.37,.62,2.05-.2-.68-.41-1.37-.62-2.05Z"/>
  </g>
  <g>
    <path class="cls-2" d="M141.14,253.49v30.7h-14.6v-6.7c-2.9,4.9-8.5,7.5-16.4,7.5-12.6,0-20.1-7-20.1-16.3s6.7-16.1,23.1-16.1h12.4c0-6.7-4-10.6-12.4-10.6-5.7,0-11.6,1.9-15.5,5l-5.6-10.9c5.9-4.2,14.6-6.5,23.2-6.5,16.4,0,25.9,7.6,25.9,23.9Zm-15.6,13.7v-5.5h-10.7c-7.3,0-9.6,2.7-9.6,6.3,0,3.9,3.3,6.5,8.8,6.5,5.2,0,9.7-2.4,11.5-7.3Z"/>
    <path class="cls-2" d="M188.64,229.59v14.4c-1.3-.1-2.3-.2-3.5-.2-8.6,0-14.3,4.7-14.3,15v25.4h-15.6v-53.8h14.9v7.1c3.8-5.2,10.2-7.9,18.5-7.9Z"/>
    <path class="cls-2" d="M196.04,214.19c0-4.9,3.9-8.7,9.7-8.7s9.7,3.6,9.7,8.4c0,5.2-3.9,9-9.7,9s-9.7-3.8-9.7-8.7Zm1.9,16.2h15.6v53.8h-15.6v-53.8Z"/>
    <path class="cls-2" d="M222.84,279.19l5.2-11.2c4.8,3.1,12.1,5.2,18.7,5.2,7.2,0,9.9-1.9,9.9-4.9,0-8.8-32.5,.2-32.5-21.3,0-10.2,9.2-17.4,24.9-17.4,7.4,0,15.6,1.7,20.7,4.7l-5.2,11.1c-5.3-3-10.6-4-15.5-4-7,0-10,2.2-10,5,0,9.2,32.5,.3,32.5,21.5,0,10-9.3,17.1-25.4,17.1-9.1,0-18.3-2.5-23.3-5.8Z"/>
    <path class="cls-2" d="M325.04,227.39h-22.4v-13.2h61v13.2h-22.4v56.8h-16.2v-56.8Z"/>
    <path class="cls-2" d="M368.14,214.19c0-4.9,3.9-8.7,9.7-8.7s9.7,3.6,9.7,8.4c0,5.2-3.9,9-9.7,9s-9.7-3.8-9.7-8.7Zm1.9,16.2h15.6v53.8h-15.6v-53.8Z"/>
    <path class="cls-2" d="M396.14,257.29c0-16.2,12.5-27.7,30-27.7,11.3,0,20.2,4.9,24.1,13.7l-12.1,6.5c-2.9-5.1-7.2-7.4-12.1-7.4-7.9,0-14.1,5.5-14.1,14.9s6.2,14.9,14.1,14.9c4.9,0,9.2-2.2,12.1-7.4l12.1,6.6c-3.9,8.6-12.8,13.6-24.1,13.6-17.5,0-30-11.5-30-27.7Z"/>
    <path class="cls-2" d="M481.94,263.09l-7.5,7.4v13.7h-15.6v-74.2h15.6v42l22.8-21.6h18.6l-22.4,22.8,24.4,31h-18.9l-17-21.1Z"/>
    <path class="cls-2" d="M574.94,261.69h-40.7c1.5,6.7,7.2,10.8,15.4,10.8,5.7,0,9.8-1.7,13.5-5.2l8.3,9c-5,5.7-12.5,8.7-22.2,8.7-18.6,0-30.7-11.7-30.7-27.7s12.3-27.7,28.7-27.7,28,10.6,28,27.9c0,1.2-.2,2.9-.3,4.2Zm-40.9-9.1h26.5c-1.1-6.8-6.2-11.2-13.2-11.2s-12.2,4.3-13.3,11.2Z"/>
    <path class="cls-2" d="M620.34,281.59c-3.2,2.3-7.9,3.4-12.7,3.4-12.7,0-20.1-6.5-20.1-19.3v-22.1h-8.3v-12h8.3v-13.1h15.6v13.1h13.4v12h-13.4v21.9c0,4.6,2.5,7.1,6.7,7.1,2.3,0,4.6-.7,6.3-2l4.2,11Z"/>
  </g>
</svg>